<?xml version="1.0" encoding="UTF-8"?>
<svg enable-background="new 0 0 367.68 366.31" version="1.1" viewBox="0 0 367.68 366.31" xml:space="preserve" xmlns="http://www.w3.org/2000/svg">
<style type="text/css">
	.st1{fill:#F3F6F8;}
</style>
<title>logoset</title>
<path class="st1" d="m320 22.77h-272.3c-13.36 0-24.23 10.87-24.24 24.23v272.29c-0.01 13.37 10.86 24.25 24.23 24.25h272.31c13.37 0 24.25-10.88 24.25-24.25v-272.29c-0.01-13.36-10.89-24.23-24.25-24.23zm-280.87 296.52v-272.28c0-0.59 0.06-1.17 0.18-1.72 0.81-3.9 4.27-6.84 8.39-6.85h272.29c4.72 0.01 8.56 3.85 8.57 8.56v272.29c0 4.72-3.84 8.57-8.56 8.58h-272.29c-4.73-0.01-8.58-3.86-8.58-8.58z"/>
<path class="st1" d="m187 233.77c-22.62 1.7-44.74 7.54-65.26 17.23 0.12 34.3 28.02 62.02 62.32 61.9s62.02-28.02 61.9-62.32c-0.01-4.16-0.45-8.31-1.29-12.38-18.88-4.47-38.33-5.97-57.67-4.43z"/>
<path class="st1" d="m124.5 232.48c35.98-14.72 75.42-18.83 113.67-11.86-2.3-4.15-5.06-8.03-8.24-11.55-2.86-3.32-2.8-8.25 0.15-11.5 9.87-10.89 9.04-27.72-1.85-37.59-4.92-4.46-11.32-6.91-17.95-6.89h-52.88c-14.69-0.05-26.64 11.81-26.7 26.5-0.02 6.64 2.44 13.06 6.91 17.98 2.95 3.26 3 8.2 0.13 11.52-6.07 6.73-10.59 14.72-13.24 23.39zm70-68.5h15.79c8.73-0.02 15.83 7.04 15.85 15.77 0.01 3.54-1.17 6.99-3.36 9.78-8.58-5.43-18.2-9-28.25-10.48v-0.05l-0.03-15.02zm-37.09 0h15.79v15c-10.03 1.48-19.63 5.04-28.2 10.46-5.36-6.85-4.15-16.74 2.7-22.1 2.77-2.17 6.19-3.35 9.7-3.34l0.01-0.02z"/>
<path class="st1" d="m121.59 171c0.88-3.58 2.29-7 4.19-10.16h-2.93c-9.09-0.01-16.46-7.38-16.47-16.47v-16.48h154.92v16.47c-0.01 9.09-7.38 16.46-16.47 16.47h-2.93c1.9 3.16 3.32 6.59 4.19 10.17 14.23-0.67 25.42-12.39 25.43-26.63v-26.7h-175.36v26.69c0.01 14.24 11.2 25.97 25.43 26.64z"/>
</svg>
